<svg height="512pt" viewBox="-73 0 512 512" width="512pt" xmlns="http://www.w3.org/2000/svg"><path d="m356 186c0 93.890625-173 316-173 316s-173-222.109375-173-316 79.109375-176 173-176 173 82.109375 173 176zm0 0" fill="#ff637b"/><path d="m183 66c-69.214844 0-120 56.535156-120 120 0 66.171875 53.828125 120 120 120 65.449219 0 120-52.96875 120-120 0-66.171875-53.828125-120-120-120zm0 0" fill="#ececf1"/><path d="m220.25 136.859375c14.480469 3.390625 23.960938 18.25 22.628906 33.070313-.988281 10.929687-8.910156 26.992187-59.878906 76.082031-50.949219-49.070313-58.878906-65.0625-59.871094-76.011719-1.347656-14.839844 8.109375-29.738281 22.621094-33.140625 19.710938-4.621094 37.25 10.21875 37.25 29.152344 0-18.933594 17.539062-33.773438 37.25-29.152344zm0 0" fill="#ff637b"/><path d="m103 106c5.519531 0 10-4.480469 10-10 0-5.445312-4.425781-10-10-10-5.519531 0-10 4.480469-10 10 0 5.5625 4.539062 10 10 10zm0 0"/><path d="m175.109375 508.144531c1.898437 2.433594 4.804687 3.855469 7.890625 3.855469s5.992188-1.421875 7.890625-3.855469c7.148437-9.179687 175.109375-225.925781 175.109375-322.144531 0-97.34375-81.574219-186-183-186-101.316406 0-183 88.535156-183 186 0 96.21875 167.960938 312.964844 175.109375 322.144531zm7.890625-488.144531c86.832031 0 163 77.570312 163 166 0 74.410156-118.148438 240.074219-163 299.515625-45.183594-59.878906-163-225.292969-163-299.515625 0-88.429688 76.167969-166 163-166zm0 0"/><path d="m183 316c71.683594 0 130-58.316406 130-130s-58.316406-130-130-130c-17.066406 0-32.828125 3.125-49.605469 9.835938-5.125 2.050781-7.621093 7.871093-5.570312 13 2.050781 5.125 7.871093 7.621093 13 5.570312 14.53125-5.8125 27.539062-8.40625 42.175781-8.40625 60.652344 0 110 49.347656 110 110s-49.347656 110-110 110-110-49.347656-110-110c0-18.824219 4.71875-36.898438 14.03125-53.730469 2.671875-4.832031.921875-10.917969-3.910156-13.589843-4.832032-2.671876-10.917969-.921876-13.59375 3.910156-10.964844 19.828125-16.527344 41.160156-16.527344 63.410156 0 71.683594 58.316406 130 130 130zm0 0"/><path d="m176.0625 253.210938c1.9375 1.867187 4.4375 2.796874 6.9375 2.796874s5-.933593 6.9375-2.796874c50.800781-48.925782 61.53125-67.253907 62.902344-82.386719 1.804687-20.105469-11.511719-39.300781-30.308594-43.703125-14.933594-3.5-29.839844 1.472656-39.53125 12.417968-9.714844-10.972656-24.625-15.90625-39.53125-12.417968-18.820312 4.410156-32.128906 23.644531-30.296875 43.777344 1.363281 15.085937 12.089844 33.386718 62.890625 82.3125zm-28.03125-106.613282c13.496094-3.167968 24.96875 6.960938 24.96875 19.414063 0 5.519531 4.476562 10 10 10s10-4.480469 10-10c0-12.386719 11.414062-22.597657 24.972656-19.414063 9.160156 2.144532 15.867188 12.210938 14.949219 22.429688-.660156 7.285156-7.101563 21.070312-49.921875 63.042968-42.820312-41.964843-49.253906-55.714843-49.910156-62.976562-.933594-10.253906 5.769531-20.347656 14.941406-22.496094zm0 0"/></svg>